HIERARCHY
ROOT Hips
{
	OFFSET 0.000000 0.000000 0.000000
	CHANNELS 6 Xposition Yposition Zposition Zrotation Yrotation Xrotation 
	JOINT LeftUpLeg_virtual
	{
		OFFSET 0.000000 0.000000 0.000000
		CHANNELS 3 Zrotation Yrotation Xrotation
		JOINT LeftUpLeg
		{
			OFFSET 8.479694 -4.795517 -0.379053
			CHANNELS 3 Zrotation Yrotation Xrotation
			JOINT LeftLeg
			{
				OFFSET 0.485052 -32.551468 0.112863
				CHANNELS 3 Zrotation Yrotation Xrotation
				JOINT LeftFoot
				{
					OFFSET 0.438033 -32.635670 -3.012641
					CHANNELS 3 Zrotation Yrotation Xrotation
					JOINT LeftToeBase
					{
						OFFSET 0.970169 -13.225353 11.864223
						CHANNELS 3 Zrotation Yrotation Xrotation
						End Site
						{
							OFFSET 0.000000 0.000000 0.000000
						}
					}
				}
			}
		}
	}
	JOINT RightUpLeg_virtual
	{
		OFFSET 0.000000 0.000000 0.000000
		CHANNELS 3 Zrotation Yrotation Xrotation
		JOINT RightUpLeg
		{
			OFFSET -8.479694 -4.795517 -0.379053
			CHANNELS 3 Zrotation Yrotation Xrotation
			JOINT RightLeg
			{
				OFFSET -0.484100 -32.551483 0.112903
				CHANNELS 3 Zrotation Yrotation Xrotation
				JOINT RightFoot
				{
					OFFSET -0.438985 -32.635651 -3.012681
					CHANNELS 3 Zrotation Yrotation Xrotation
					JOINT RightToeBase
					{
						OFFSET -0.970169 -13.225354 11.864223
						CHANNELS 3 Zrotation Yrotation Xrotation
						End Site
						{
							OFFSET 0.000000 0.000000 0.000000
						}
					}
				}
			}
		}
	}
	JOINT Spine_virtual
	{
		OFFSET 0.000000 0.000000 0.000000
		CHANNELS 3 Zrotation Yrotation Xrotation
		JOINT Spine
		{
			OFFSET 0.000000 7.722015 1.166203
			CHANNELS 3 Zrotation Yrotation Xrotation
			JOINT Spine1
			{
				OFFSET 0.000000 12.024086 0.248766
				CHANNELS 3 Zrotation Yrotation Xrotation
				JOINT Spine2
				{
					OFFSET -0.000000 11.503036 -0.491240
					CHANNELS 3 Zrotation Yrotation Xrotation
					JOINT Neck_virtual
					{
						OFFSET 0.000000 0.000000 0.000000
						CHANNELS 3 Zrotation Yrotation Xrotation
						JOINT Neck
						{
							OFFSET 0.000000 18.430687 -3.123054
							CHANNELS 3 Zrotation Yrotation Xrotation
							JOINT Head
							{
								OFFSET -0.000000 9.051071 1.034021
								CHANNELS 3 Zrotation Yrotation Xrotation
								End Site
								{
									OFFSET 0.000000 0.000000 0.000000
								}
							}
						}
					}
					JOINT LeftShoulder_virtual
					{
						OFFSET 0.000000 0.000000 0.000000
						CHANNELS 3 Zrotation Yrotation Xrotation
						JOINT LeftShoulder
						{
							OFFSET 6.197824 13.665230 -4.064723
							CHANNELS 3 Zrotation Yrotation Xrotation
							JOINT LeftArm
							{
								OFFSET 7.778132 -0.187073 -1.709282
								CHANNELS 3 Zrotation Yrotation Xrotation
								JOINT LeftForeArm
								{
									OFFSET 21.954697 0.000000 -2.041093
									CHANNELS 3 Zrotation Yrotation Xrotation
									JOINT LeftHand
									{
										OFFSET 22.992908 0.000000 -0.870901
										CHANNELS 3 Zrotation Yrotation Xrotation
										End Site
										{
											OFFSET 0.000000 0.000000 0.000000
										}
									}
								}
							}
						}
					}
					JOINT RightShoulder_virtual
					{
						OFFSET 0.000000 0.000000 0.000000
						CHANNELS 3 Zrotation Yrotation Xrotation
						JOINT RightShoulder
						{
							OFFSET -6.197824 13.665230 -4.064723
							CHANNELS 3 Zrotation Yrotation Xrotation
							JOINT RightArm
							{
								OFFSET -7.778132 -0.187073 -1.709282
								CHANNELS 3 Zrotation Yrotation Xrotation
								JOINT RightForeArm
								{
									OFFSET -21.954697 0.000000 -2.041093
									CHANNELS 3 Zrotation Yrotation Xrotation
									JOINT RightHand
									{
										OFFSET -22.992908 0.000000 -0.870901
										CHANNELS 3 Zrotation Yrotation Xrotation
										End Site
										{
											OFFSET 0.000000 0.000000 0.000000
										}
									}
								}
							}
						}
					}
				}
			}
		}
	}
}
MOTION
Frames: 5
Frame Time: 0.033333
-28.889389 81.045120 -25.679976 179.995033 -2.700041 179.877594 -1.356550 0.057979 14.956663 4.657590 -3.880143 -21.824406 1.571313 1.510158 25.387492 -3.757046 -8.199540 -11.813385 0.000000 0.000000 0.000000 2.576635 -1.368215 16.633056 -8.303919 3.129115 -23.349492 -0.949522 7.836278 28.753204 11.784381 1.054619 -11.101264 0.000000 0.000000 0.000000 4.315299 2.226627 3.709989 -0.133237 -1.856644 -7.844750 -0.407394 -2.182976 7.549971 -0.003902 -0.059809 -0.049491 -0.703732 -0.578672 8.185920 -3.500299 2.352707 -3.558364 0.000000 0.000000 0.000000 1.202409 0.056027 5.358391 -12.050294 -2.839316 2.158995 -56.116698 -15.449227 -5.274318 6.950722 -18.272052 3.108059 0.000000 0.000000 0.000000 -3.666725 1.614622 4.409146 28.922887 -0.203476 9.275218 45.140570 12.092542 -2.934163 -1.297570 22.395999 -1.778040 0.000000 0.000000 0.000000 
-28.882639 81.029915 -25.709810 -179.940979 -2.840757 179.790755 -1.479731 -0.022869 14.820904 4.568992 -3.869896 -21.969665 1.398988 1.729940 25.200797 -3.937715 -8.471578 -11.944567 0.000000 0.000000 0.000000 2.514838 -1.439585 16.586788 -8.437805 3.169400 -23.408814 -1.214420 7.804000 28.479913 11.380944 0.609363 -10.960644 0.000000 0.000000 0.000000 4.327477 2.146925 3.718392 -0.095673 -1.885674 -7.800680 -0.383309 -2.244201 7.578272 -0.002289 -0.113974 -0.031821 -0.739702 -0.698856 8.201451 -3.500711 2.349565 -3.545846 0.000000 0.000000 0.000000 1.192105 0.071647 5.395500 -12.015824 -2.862605 2.140334 -56.088557 -15.567521 -5.049125 6.909880 -18.437500 3.080423 0.000000 0.000000 0.000000 -3.705882 1.546879 4.440456 28.882452 -0.154145 9.213171 45.098680 12.345104 -2.853917 -1.205935 22.356246 -1.675140 0.000000 0.000000 0.000000 
-28.882626 81.019463 -25.757792 -179.924436 -2.925127 179.812120 -1.484938 -0.070542 14.853435 4.594398 -3.873633 -22.007800 1.402406 1.721505 25.241266 -3.921823 -8.498345 -11.995935 0.000000 0.000000 0.000000 2.503111 -1.499877 16.621597 -8.420422 3.205348 -23.406058 -1.218561 7.781368 28.475050 11.363424 0.606437 -10.965445 0.000000 0.000000 0.000000 4.318711 2.145741 3.673686 -0.125215 -1.798974 -7.835527 -0.423348 -2.171313 7.599874 0.004198 -0.059793 -0.007926 -0.706955 -0.697496 8.125573 -3.422591 2.317439 -3.550568 0.000000 0.000000 0.000000 1.171781 -0.004703 5.349737 -11.973004 -2.983586 2.185895 -56.149623 -15.653322 -4.994427 6.930336 -18.710296 2.965211 0.000000 0.000000 0.000000 -3.737541 1.511948 4.333992 28.855005 -0.239445 9.235517 45.208732 12.357460 -2.569683 -1.305804 22.380559 -1.730722 0.000000 0.000000 0.000000 
-28.886181 81.003220 -25.817873 -179.924955 -3.037339 179.816874 -1.493150 -0.113187 14.902527 4.613033 -3.866940 -22.059163 1.391124 1.734300 25.294048 -3.924798 -8.555896 -12.040205 0.000000 0.000000 0.000000 2.484667 -1.552515 16.663396 -8.391418 3.212392 -23.386387 -1.231762 7.782545 28.518610 11.323601 0.596818 -10.998438 0.000000 0.000000 0.000000 4.267196 2.058343 3.627414 -0.164457 -1.792836 -7.880611 -0.388068 -2.184611 7.594568 -0.001703 -0.098554 -0.090404 -0.761071 -0.737129 8.259948 -3.406647 2.357775 -3.446654 0.000000 0.000000 0.000000 1.169834 0.045927 5.464426 -12.023634 -2.870106 2.182887 -56.282808 -15.417415 -4.688345 6.907001 -19.060816 3.274837 0.000000 0.000000 0.000000 -3.744210 1.600115 4.443451 28.810800 -0.218966 9.240276 45.294451 12.255537 -2.295631 -1.404401 22.260746 -1.777689 0.000000 0.000000 0.000000 
-28.901609 80.986076 -25.890871 -179.917278 -3.144131 179.836900 -1.501199 -0.156250 14.945909 4.623696 -3.820885 -22.107205 1.389449 1.744267 25.355288 -3.938004 -8.613024 -12.066818 0.000000 0.000000 0.000000 2.458051 -1.596198 16.687243 -8.366070 3.238157 -23.371162 -1.229940 7.763089 28.565750 11.272982 0.603868 -11.018885 0.000000 0.000000 0.000000 4.254939 2.028105 3.569196 -0.212358 -1.740662 -7.936448 -0.403058 -2.165353 7.618647 -0.043211 -0.080732 -0.039410 -0.722135 -0.568094 8.183548 -3.303852 2.316912 -3.358061 0.000000 0.000000 0.000000 1.185722 0.067959 5.360347 -12.068170 -2.819034 2.215945 -56.627948 -14.908063 -4.211052 7.008219 -19.394098 3.242043 0.000000 0.000000 0.000000 -3.702479 1.590696 4.416417 28.709672 -0.258899 9.255443 45.453488 11.975016 -2.122677 -1.424453 22.145095 -1.736670 0.000000 0.000000 0.000000 
